<svg id="visual" viewBox="0 0 900 600" width="900" height="600" xmlns="http://www.w3.org/2000/svg" xmlns:xlink="http://www.w3.org/1999/xlink" version="1.1"><rect x="0" y="0" width="900" height="600" fill="#d5d6d7"></rect><path d="M0 372L37.5 364.8C75 357.7 150 343.3 225 325.3C300 307.3 375 285.7 450 290C525 294.3 600 324.7 675 341.3C750 358 825 361 862.5 362.5L900 364L900 601L862.5 601C825 601 750 601 675 601C600 601 525 601 450 601C375 601 300 601 225 601C150 601 75 601 37.5 601L0 601Z" fill="#787878"></path><path d="M0 300L37.5 304.2C75 308.3 150 316.7 225 326.3C300 336 375 347 450 359C525 371 600 384 675 382.2C750 380.3 825 363.7 862.5 355.3L900 347L900 601L862.5 601C825 601 750 601 675 601C600 601 525 601 450 601C375 601 300 601 225 601C150 601 75 601 37.5 601L0 601Z" fill="#66686e"></path><path d="M0 411L37.5 410.5C75 410 150 409 225 413.5C300 418 375 428 450 419.5C525 411 600 384 675 378.3C750 372.7 825 388.3 862.5 396.2L900 404L900 601L862.5 601C825 601 750 601 675 601C600 601 525 601 450 601C375 601 300 601 225 601C150 601 75 601 37.5 601L0 601Z" fill="#535764"></path><path d="M0 471L37.5 464.5C75 458 150 445 225 443.8C300 442.7 375 453.3 450 451.3C525 449.3 600 434.7 675 438.3C750 442 825 464 862.5 475L900 486L900 601L862.5 601C825 601 750 601 675 601C600 601 525 601 450 601C375 601 300 601 225 601C150 601 75 601 37.5 601L0 601Z" fill="#41485a"></path><path d="M0 479L37.5 479.8C75 480.7 150 482.3 225 478.5C300 474.7 375 465.3 450 464C525 462.7 600 469.3 675 477.5C750 485.7 825 495.3 862.5 500.2L900 505L900 601L862.5 601C825 601 750 601 675 601C600 601 525 601 450 601C375 601 300 601 225 601C150 601 75 601 37.5 601L0 601Z" fill="#2f3950"></path><path d="M0 538L37.5 534C75 530 150 522 225 521.7C300 521.3 375 528.7 450 525.8C525 523 600 510 675 507.8C750 505.7 825 514.3 862.5 518.7L900 523L900 601L862.5 601C825 601 750 601 675 601C600 601 525 601 450 601C375 601 300 601 225 601C150 601 75 601 37.5 601L0 601Z" fill="#1b2b46"></path><path d="M0 522L37.5 522.5C75 523 150 524 225 531C300 538 375 551 450 552C525 553 600 542 675 540C750 538 825 545 862.5 548.5L900 552L900 601L862.5 601C825 601 750 601 675 601C600 601 525 601 450 601C375 601 300 601 225 601C150 601 75 601 37.5 601L0 601Z" fill="#001e3c"></path></svg>